<?xml version="1.0" encoding="UTF-8" standalone="no"?>
<!-- Created with Inkscape (http://www.inkscape.org/) -->

<svg
   xmlns:dc="http://purl.org/dc/elements/1.1/"
   xmlns:cc="http://creativecommons.org/ns#"
   xmlns:rdf="http://www.w3.org/1999/02/22-rdf-syntax-ns#"
   xmlns:svg="http://www.w3.org/2000/svg"
   xmlns="http://www.w3.org/2000/svg"
   xmlns:sodipodi="http://sodipodi.sourceforge.net/DTD/sodipodi-0.dtd"
   xmlns:inkscape="http://www.inkscape.org/namespaces/inkscape"
   width="118.53333mm"
   height="103.71667mm"
   viewBox="0 0 118.53333 103.71667"
   version="1.1"
   id="svg8"
   inkscape:version="0.92.4 (33fec40, 2019-01-16)"
   sodipodi:docname="drawing.svg">
  <defs
     id="defs2" />
  <sodipodi:namedview
     id="base"
     pagecolor="#ffffff"
     bordercolor="#666666"
     borderopacity="1.0"
     inkscape:pageopacity="0.0"
     inkscape:pageshadow="2"
     inkscape:zoom="0.35"
     inkscape:cx="-233.14286"
     inkscape:cy="150.28572"
     inkscape:document-units="mm"
     inkscape:current-layer="layer1"
     showgrid="false"
     inkscape:window-width="1613"
     inkscape:window-height="995"
     inkscape:window-x="67"
     inkscape:window-y="27"
     inkscape:window-maximized="1"
     fit-margin-top="0"
     fit-margin-left="0"
     fit-margin-right="0"
     fit-margin-bottom="0" />
  <metadata
     id="metadata5">
    <rdf:RDF>
      <cc:Work
         rdf:about="">
        <dc:format>image/svg+xml</dc:format>
        <dc:type
           rdf:resource="http://purl.org/dc/dcmitype/StillImage" />
        <dc:title></dc:title>
      </cc:Work>
    </rdf:RDF>
  </metadata>
  <g
     inkscape:label="Layer 1"
     inkscape:groupmode="layer"
     id="layer1"
     transform="translate(-39.007144,-84.879765)">
    <path
       id="path10"
       d="M 43.240477,103.92976 H 153.30714 c 2.33812,0 4.23333,-1.89521 4.23333,-4.233335 v -10.58333 c 0,-2.33812 -1.89521,-4.23333 -4.23333,-4.23333 H 43.240477 c -2.338123,0 -4.233333,1.89521 -4.233333,4.23333 v 10.58333 c 0,2.338125 1.89521,4.233335 4.233333,4.233335 z m 0,42.33333 H 153.30714 c 2.33812,0 4.23333,-1.89521 4.23333,-4.23333 v -10.58334 c 0,-2.33812 -1.89521,-4.23333 -4.23333,-4.23333 H 43.240477 c -2.338123,0 -4.233333,1.89521 -4.233333,4.23333 v 10.58334 c 0,2.33812 1.89521,4.23333 4.233333,4.23333 z m 0,42.33334 H 153.30714 c 2.33812,0 4.23333,-1.89521 4.23333,-4.23334 v -10.58333 c 0,-2.33812 -1.89521,-4.23333 -4.23333,-4.23333 H 43.240477 c -2.338123,0 -4.233333,1.89521 -4.233333,4.23333 v 10.58333 c 0,2.33813 1.89521,4.23334 4.233333,4.23334 z"
       inkscape:connector-curvature="0"
       style="fill:#ffffff;stroke-width:0.26458332" />
  </g>
</svg>
